<svg xmlns="http://www.w3.org/2000/svg" width="1920" height="1080" viewBox="0 0 1920 1080">
  <defs>
    <radialGradient id="glow" cx="50%" cy="20%" r="60%">
      <stop offset="0%" stop-color="#FF5A1F" stop-opacity="0.1"/>
      <stop offset="50%" stop-color="#12141C" stop-opacity="0.4"/>
      <stop offset="100%" stop-color="#0A0B0D"/>
    </radialGradient>
    <linearGradient id="road" x1="50%" y1="0%" x2="50%" y2="100%">
      <stop offset="0%" stop-color="#0A0B0D"/>
      <stop offset="100%" stop-color="#1a1c28"/>
    </linearGradient>
  </defs>
  <rect width="1920" height="1080" fill="url(#road)"/>
  <rect width="1920" height="1080" fill="url(#glow)"/>
  <g opacity="0.08">
    <ellipse cx="960" cy="200" rx="400" ry="3" fill="#FF5A1F"/>
    <ellipse cx="960" cy="350" rx="300" ry="2" fill="#FF5A1F" opacity="0.6"/>
    <ellipse cx="960" cy="500" rx="200" ry="1.5" fill="#FF5A1F" opacity="0.4"/>
  </g>
  <g opacity="0.02">
    <circle cx="200" cy="150" r="1.5" fill="white"/>
    <circle cx="450" cy="100" r="1" fill="white"/>
    <circle cx="780" cy="180" r="1.5" fill="white"/>
    <circle cx="1020" cy="120" r="1" fill="white"/>
    <circle cx="1250" cy="160" r="2" fill="white"/>
    <circle cx="1500" cy="90" r="1" fill="white"/>
    <circle cx="1720" cy="140" r="1.5" fill="white"/>
    <circle cx="350" cy="250" r="1" fill="white"/>
    <circle cx="650" cy="220" r="1.5" fill="white"/>
    <circle cx="1350" cy="280" r="1" fill="white"/>
    <circle cx="1650" cy="200" r="1" fill="white"/>
    <circle cx="550" cy="300" r="0.8" fill="white"/>
    <circle cx="1150" cy="320" r="0.8" fill="white"/>
  </g>
  <g opacity="0.04">
    <line x1="0" y1="350" x2="1920" y2="350" stroke="#FF5A1F" stroke-width="0.5" stroke-dasharray="40 60"/>
    <line x1="0" y1="550" x2="1920" y2="550" stroke="#FF5A1F" stroke-width="0.3" stroke-dasharray="30 70"/>
    <line x1="0" y1="750" x2="1920" y2="750" stroke="#FF5A1F" stroke-width="0.2" stroke-dasharray="20 80"/>
  </g>
</svg>
